# File created by Blade
# Date/Time:  Thu Jan 22 16:16:06 2015
# Frame Rate: 120.000 fps
#------------------------------------------------------
:FULLY-SPECIFIED
:DEGREES
472
root -0.642602 33.945377 -5.930743 49.664214 -32.899840 -0.708078
RightUpLeg -77.173758 -2.235761 -22.592986
RightLeg 25.488216 -0.000000 -0.000000
RightFoot -7.699175 -14.982629 28.008253
RightToeBase 14.635767 -0.000000 -0.000000
LeftUpLeg -40.378316 38.895160 -2.020256
LeftLeg -6.669222 -0.000000 0.000000
LeftFoot -0.534575 18.828826 -40.090815
LeftToeBase 11.994232 -0.000000 -0.000000
Spine 77.365981 -14.106474 -4.982740
RightShoulder 12.901346 15.073167 -36.590522
RightArm 62.098814 29.300017 35.372005
RightForeArm -2.812901 -0.000000 27.257950
RightHand 11.648487 0.000000 -11.159631
RightHandThumb1 -24.326973 -0.000000 -32.862282
LeftShoulder 7.362970 -7.440056 45.621247
LeftArm 84.949902 -29.666825 -40.500989
LeftForeArm 69.438237 -0.000000 10.694937
LeftHand -11.435562 -0.000000 -0.722957
LeftHandThumb1 -26.253704 0.000000 33.147579
Head -6.167634 16.187441 6.828024
473
root -0.662559 33.941113 -5.936199 49.887201 -32.854961 -0.774302
RightUpLeg -77.404298 -2.303069 -22.426726
RightLeg 25.590573 -0.000000 -0.000000
RightFoot -7.734586 -14.891481 28.022668
RightToeBase 14.735448 -0.000000 -0.000000
LeftUpLeg -40.581919 38.913633 -2.070365
LeftLeg -6.730434 -0.000000 0.000000
LeftFoot -0.497939 18.900576 -40.090618
LeftToeBase 11.977626 -0.000000 -0.000000
Spine 77.415773 -14.068569 -4.920705
RightShoulder 12.857636 15.040703 -36.595971
RightArm 62.131802 29.385330 35.308530
RightForeArm -2.943682 0.000000 27.262309
RightHand 11.606842 -0.000000 -11.380008
RightHandThumb1 -24.326973 -0.000000 -32.862282
LeftShoulder 7.325815 -7.489202 45.674751
LeftArm 84.799575 -29.739288 -40.449858
LeftForeArm 69.538100 -0.000000 10.758233
LeftHand -11.624859 -0.000000 -0.366192
LeftHandThumb1 -26.253704 0.000000 33.147579
Head -6.157052 16.220510 6.886014
474
root -0.684682 33.938647 -5.942368 50.147094 -32.782685 -0.886671
RightUpLeg -77.629185 -2.355268 -22.212623
RightLeg 25.658570 -0.000000 -0.000000
RightFoot -7.736160 -14.852495 27.921685
RightToeBase 14.758120 -0.000000 -0.000000
LeftUpLeg -40.825398 38.956810 -2.096219
LeftLeg -6.765552 -0.000000 0.000000
LeftFoot -0.477382 18.952609 -40.082637
LeftToeBase 12.011494 -0.000000 -0.000000
Spine 77.456334 -14.053380 -4.828518
RightShoulder 12.850014 15.094877 -36.634261
RightArm 62.116004 29.430488 35.280305
RightForeArm -3.154394 -0.000000 27.254875
RightHand 11.685571 -0.000000 -11.730138
RightHandThumb1 -24.326973 -0.000000 -32.862282
LeftShoulder 7.274511 -7.533950 45.718731
LeftArm 84.641757 -29.807576 -40.422854
LeftForeArm 69.812729 -0.000000 10.782567
LeftHand -11.651657 -0.000000 -0.186388
LeftHandThumb1 -26.253704 0.000000 33.147579
Head -6.051659 16.213047 6.854001
475
root -0.700806 33.936492 -5.947939 50.404928 -32.748846 -0.964512
RightUpLeg -77.872430 -2.432334 -22.030700
RightLeg 25.713986 -0.000000 -0.000000
RightFoot -7.711075 -14.761338 27.917306
RightToeBase 14.518226 -0.000000 -0.000000
LeftUpLeg -41.076938 38.976796 -2.165729
LeftLeg -6.794655 -0.000000 0.000000
LeftFoot -0.470370 19.010748 -40.075265
LeftToeBase 12.019703 -0.000000 -0.000000
Spine 77.470564 -14.034474 -4.782739
RightShoulder 12.849199 15.197635 -36.646605
RightArm 62.106510 29.466084 35.339708
RightForeArm -3.334050 -0.000000 27.288271
RightHand 11.771399 0.000000 -11.900202
RightHandThumb1 -24.326973 -0.000000 -32.862282
LeftShoulder 7.218122 -7.523580 45.759815
LeftArm 84.541894 -29.919478 -40.410663
LeftForeArm 70.003814 -0.000000 10.783574
LeftHand -11.654193 -0.000000 0.119631
LeftHandThumb1 -26.253704 0.000000 33.147579
Head -5.893530 16.224759 6.842123
476
root -0.716547 33.936281 -5.951389 50.643817 -32.733045 -1.039603
RightUpLeg -78.085175 -2.484207 -21.878080
RightLeg 25.741240 -0.000000 -0.000000
RightFoot -7.684088 -14.667509 27.815416
RightToeBase 14.748752 -0.000000 -0.000000
LeftUpLeg -41.360158 39.073360 -2.331788
LeftLeg -6.826012 -0.000000 0.000000
LeftFoot -0.396251 19.015673 -40.016615
LeftToeBase 12.048439 -0.000000 -0.000000
Spine 77.542266 -13.964758 -4.753232
RightShoulder 12.783025 15.351870 -36.628812
RightArm 62.111425 29.489771 35.476391
RightForeArm -3.713778 -0.000000 27.343986
RightHand 11.879236 -0.000000 -12.336453
RightHandThumb1 -24.326973 -0.000000 -32.862282
LeftShoulder 7.110114 -7.549990 45.893242
LeftArm 84.418515 -30.002296 -40.377698
LeftForeArm 70.104856 -0.000000 10.831634
LeftHand -11.837571 -0.000000 0.343633
LeftHandThumb1 -26.253704 0.000000 33.147579
Head -5.876278 16.347014 6.954110
